<svg width="255" height="98" viewBox="0 0 255 98" fill="none" xmlns="http://www.w3.org/2000/svg">
<g clip-path="url(#clip0_1382_17830)">
<path d="M6.19035 45.9071H0V38.7689H20.7907V45.9071H14.5183V71.0438H6.19035V45.9071Z" fill="#0E9549"/>
<path d="M22.003 38.7619H30.0695V44.8204H22.003V38.7619ZM22.003 46.5834H30.0695V71.042H22.003V46.5834Z" fill="#0E9549"/>
<path d="M40.7731 60.1965V63.4061C40.7731 65.6062 41.5051 66.7063 42.9689 66.7063C43.7454 66.7063 44.3207 66.3898 44.6947 65.7566C45.0685 65.1236 45.2551 64.0235 45.2543 62.4564H52.5135C52.4527 65.531 51.6762 67.814 50.1839 69.3053C48.6914 70.7967 46.3016 71.5429 43.0144 71.5436C39.1612 71.5436 36.48 70.6016 34.9707 68.7177C33.4615 66.8337 32.7072 63.5412 32.708 58.8402C32.708 54.1995 33.5082 50.8914 35.1083 48.9156C36.7086 46.9398 39.3448 45.9528 43.0168 45.9545C46.3622 45.9545 48.819 46.8362 50.3873 48.5994C51.9555 50.3628 52.7396 53.3994 52.7396 57.7096V60.1965H40.7731ZM45.2101 54.6809C45.2101 53.3536 45.0459 52.3963 44.7173 51.809C44.3888 51.2218 43.8061 50.9283 42.9689 50.9283C42.1629 50.9283 41.5957 51.2218 41.2672 51.809C40.9387 52.3963 40.7741 53.3536 40.7731 54.6809V55.7656H45.2101V54.6809Z" fill="#0E9549"/>
<path d="M54.9801 46.588H62.7775V49.5721H62.867C63.9115 47.1604 65.868 45.9545 68.7366 45.9545C70.7083 45.9545 72.2542 46.452 73.3744 47.4472C74.4946 48.4424 75.0545 50.1601 75.0545 52.6008V71.0467H66.9894V54.9067C66.9894 53.8818 66.8399 53.1433 66.5409 52.6913C66.2415 52.2388 65.7349 52.0131 65.0174 52.0131C64.2997 52.0131 63.7919 52.2388 63.4938 52.6913C63.1957 53.1437 63.0427 53.8818 63.0427 54.9067V71.0467H54.9801V46.588Z" fill="#0E9549"/>
<path d="M78.6365 38.7619H87.956L93.3341 58.6547H93.4238V38.7619H101.22V71.042H92.0784L86.5197 51.1047H86.4313V71.042H78.6365V38.7619Z" fill="#0E9549"/>
<path d="M117.215 45.9781H124.742V70.6355C124.742 76.3615 121.366 79.2248 114.616 79.2257C112.734 79.2257 111.15 79.0523 109.866 78.7055C108.588 78.3637 107.445 77.6313 106.595 76.6088C105.7 75.5533 105.237 74.1367 105.206 72.3589H112.465C112.465 73.6242 113.138 74.2569 114.486 74.2569C115.233 74.2569 115.831 74.0611 116.279 73.6692C116.727 73.2775 116.951 72.4638 116.951 71.2283V66.7019H116.857C115.961 69.1425 114.139 70.3628 111.39 70.3628C106.673 70.3628 104.315 66.339 104.315 58.2915C104.315 53.8005 104.942 50.6205 106.197 48.7518C107.452 46.8832 109.319 45.9484 111.798 45.9476C114.546 45.9476 116.323 47.289 117.13 49.9718H117.22L117.215 45.9781ZM112.375 58.1577C112.375 60.5983 112.554 62.2332 112.913 63.0627C113.272 63.892 113.871 64.3064 114.71 64.3055C115.516 64.3055 116.09 63.8989 116.434 63.0857C116.778 62.2724 116.95 60.6297 116.95 58.1577C116.95 55.7461 116.77 54.1182 116.411 53.2744C116.052 52.4306 115.485 52.0083 114.71 52.0074C113.902 52.0074 113.312 52.4293 112.941 53.2731C112.569 54.117 112.381 55.7452 112.375 58.1577Z" fill="#0E9549"/>
<path d="M139.889 71.043C139.74 70.6513 139.575 69.7318 139.396 68.2846H139.306C138.41 70.455 136.588 71.5402 133.84 71.5402C129.358 71.5402 127.118 69.1892 127.119 64.4874C127.119 62.193 127.605 60.4597 128.576 59.2879C129.547 58.116 131.301 57.2271 133.84 56.6212L137.021 55.8565C137.888 55.6456 138.5 55.3368 138.858 54.9298C139.216 54.5228 139.395 53.9423 139.396 53.1886C139.396 51.6819 138.709 50.9285 137.336 50.9285C136.529 50.9285 135.954 51.1546 135.61 51.6067C135.266 52.0587 135.08 52.915 135.051 54.1752H128.061C128.061 52.5181 128.36 51.1092 128.957 49.9483C129.554 48.7875 130.354 47.9376 131.357 47.3989C132.28 46.8875 133.268 46.5082 134.293 46.2721C135.295 46.0556 136.317 45.9492 137.341 45.9547C140.446 45.9547 142.82 46.5275 144.465 47.673C146.109 48.8186 146.929 50.8669 146.927 53.8182V65.7531C146.927 68.3152 147.179 70.0784 147.685 71.043H139.889ZM136.887 66.1992C138.56 66.1992 139.396 64.8578 139.396 62.175V59.2433H139.306C139.157 59.4548 138.945 59.6131 138.701 59.6958C138.449 59.7851 138.105 59.8828 137.672 59.989C137.293 60.0742 136.924 60.2025 136.574 60.3714C135.469 60.8813 134.916 61.9359 134.915 63.5351C134.915 64.3493 135.094 64.9971 135.453 65.479C135.615 65.7098 135.83 65.8967 136.08 66.0235C136.33 66.1503 136.607 66.2128 136.887 66.2056V66.1992Z" fill="#0E9549"/>
<path d="M151.141 73.3526C151.73 73.4813 152.332 73.542 152.933 73.5336C153.83 73.5336 154.504 73.3147 154.955 72.8771C155.403 72.4398 155.62 71.6801 155.62 71.3182C155.62 71.1065 155.5 70.5487 155.262 69.6445L148.714 45.9902L157.094 45.9545L159.653 63.09H159.742L162.157 45.9902H170.29L163.64 71.7209C162.954 74.4627 162.019 76.7011 160.825 77.7119C159.632 78.7227 157.912 79.2263 155.671 79.2263C153.879 79.2263 152.37 79.166 151.146 79.0451L151.141 73.3526Z" fill="#0E9549"/>
<path d="M169.238 62.0873H176.765V71.0393H169.238V62.0873Z" fill="#EC1E24"/>
<path d="M178.555 45.9963H186.818L189.178 64.1707H189.268L191.582 45.9989H199.984L193.923 71.0425H184.424L178.555 45.9963Z" fill="#EC1E24"/>
<path d="M201.186 45.996H208.983V49.5651H209.073C210.119 47.1535 212.075 45.9476 214.942 45.9476C216.914 45.9476 218.459 46.4451 219.581 47.4403C220.701 48.4353 221.261 50.1532 221.261 52.5937V71.0422H213.194V54.9022C213.194 53.8774 213.045 53.1388 212.747 52.6868C212.448 52.2346 211.941 52.0083 211.223 52.0074C210.506 52.0074 209.999 52.2334 209.7 52.6856C209.402 53.1376 209.252 53.8761 209.252 54.9009V71.0422H201.186V45.996Z" fill="#EC1E24"/>
<path d="M6.95846 86.532H4.47601V94.9615H2.44078V86.532H0V84.8277H6.95846V86.532Z" fill="#0E9549"/>
<path d="M11.1199 94.9614C11.0441 94.7729 10.9886 94.5767 10.9544 94.3763C10.7964 94.6071 10.5837 94.794 10.3356 94.9205C10.0876 95.047 9.81217 95.1089 9.5344 95.1004C9.24652 95.109 8.95997 95.0579 8.69248 94.9502C8.42497 94.8426 8.18222 94.6806 7.97922 94.4745C7.77281 94.2605 7.6117 94.0065 7.50571 93.7278C7.39972 93.449 7.35107 93.1515 7.36271 92.8532C7.36271 92.0637 7.61202 91.4535 8.11061 91.0227C8.60921 90.5918 9.32762 90.3718 10.2659 90.3624H10.8584V89.7568C10.8584 89.4178 10.8003 89.1794 10.6866 89.0405C10.624 88.9688 10.5458 88.9126 10.4581 88.8764C10.3705 88.8401 10.2757 88.8248 10.1812 88.8315C9.69358 88.8315 9.45018 89.1191 9.45101 89.6945H7.50169C7.49437 89.367 7.56031 89.0422 7.69461 88.7441C7.82891 88.4459 8.02809 88.1821 8.27737 87.9723C8.79451 87.5203 9.44849 87.2938 10.2393 87.2929C11.0563 87.2929 11.688 87.5054 12.1343 87.9303C12.5807 88.3551 12.8048 88.9687 12.8064 89.7709V93.3119C12.8149 93.9621 12.9067 94.472 13.0818 94.8417V94.9614H11.1199ZM11.1553 86.421H9.50659L7.60528 84.2707H9.79086L11.1553 86.421ZM9.97024 93.5592C10.1622 93.5669 10.3528 93.5229 10.5223 93.4318C10.6589 93.3577 10.7748 93.2504 10.8596 93.1195V91.5427H10.3909C10.2451 91.5351 10.0995 91.5597 9.96414 91.615C9.82882 91.6703 9.70713 91.7548 9.60767 91.8626C9.4083 92.1009 9.30622 92.4067 9.32216 92.718C9.32216 93.2789 9.53818 93.5592 9.97024 93.5592Z" fill="#0E9549"/>
<path d="M14.9295 85.4817C14.9246 85.3433 14.9478 85.2053 14.9975 85.0762C15.0473 84.9472 15.1225 84.8297 15.2188 84.7309C15.4325 84.542 15.7071 84.4377 15.9913 84.4377C16.2755 84.4377 16.55 84.542 16.7638 84.7309C16.8601 84.8297 16.9354 84.9472 16.985 85.0762C17.0348 85.2053 17.058 85.3433 17.0531 85.4817C17.058 85.6255 17.0342 85.7688 16.983 85.9031C16.9319 86.0374 16.8545 86.1601 16.7553 86.2634C16.6564 86.3669 16.5375 86.4493 16.4064 86.5055C16.2751 86.5617 16.1339 86.5906 15.9913 86.5906C15.8487 86.5906 15.7076 86.5617 15.5763 86.5055C15.445 86.4493 15.3263 86.3669 15.2272 86.2634C15.1281 86.1601 15.0507 86.0374 14.9995 85.9031C14.9484 85.7688 14.9245 85.6255 14.9295 85.4817ZM16.9773 94.9615H15.0192V87.4307H16.9773V94.9615Z" fill="#0E9549"/>
<path d="M25.8535 93.465C26.4177 93.465 26.7049 93.0942 26.7151 92.3523H28.5544C28.5451 93.1732 28.2926 93.8364 27.7965 94.342C27.3003 94.8476 26.6657 95.1026 25.8927 95.1068C24.9325 95.1068 24.1994 94.8052 23.6932 94.2019C23.187 93.5986 22.9297 92.7104 22.9213 91.5378V90.9386C22.9213 89.7557 23.1706 88.8537 23.6692 88.2325C24.1678 87.6114 24.9047 87.3004 25.8799 87.2995C26.702 87.2995 27.3501 87.5544 27.8243 88.0643C28.2985 88.5741 28.5418 89.302 28.5544 90.2477H26.7151C26.7151 89.8259 26.6417 89.5008 26.5079 89.274C26.4399 89.1605 26.342 89.0685 26.2251 89.0082C26.1081 88.9477 25.9768 88.9215 25.8459 88.9324C25.509 88.9324 25.2657 89.0543 25.1157 89.2982C24.9657 89.542 24.8874 90.0141 24.8807 90.7143V91.4792C24.8662 91.909 24.8962 92.3391 24.9704 92.7627C25.009 92.9691 25.1133 93.157 25.2673 93.2981C25.4375 93.4209 25.6448 93.48 25.8535 93.465Z" fill="#0E9549"/>
<path d="M32.2578 88.0908C32.679 87.5581 33.1986 87.2912 33.8168 87.2904C34.4965 87.2904 35.0136 87.5318 35.3682 88.0144C35.7227 88.4971 35.9017 89.216 35.9052 90.1712V94.9614H33.947V90.1929C33.947 89.7518 33.8799 89.4281 33.7436 89.2356C33.6072 89.0431 33.3886 88.9399 33.0853 88.9399C32.9156 88.9373 32.7485 88.9822 32.6025 89.0694C32.4565 89.1567 32.3372 89.2831 32.2578 89.4343V94.9614H30.306V84.2707H32.2578V88.0908Z" fill="#0E9549"/>
<path d="M40.1109 94.9619H38.1539V87.4312H40.1057L40.1109 94.9619ZM39.5437 84.3821H41.7368L39.8216 86.5325H38.1931L39.5437 84.3821Z" fill="#0E9549"/>
<path d="M44.2084 87.4331L44.2639 88.1775C44.459 87.8986 44.7187 87.6722 45.0203 87.518C45.322 87.3638 45.6565 87.2865 45.9947 87.2929C47.2775 87.2929 47.9374 88.2 47.9745 90.0144V94.964H46.0151V90.1597C46.0151 89.7348 45.9518 89.4255 45.8255 89.2318C45.6992 89.0379 45.4776 88.9414 45.161 88.9423C44.8055 88.9423 44.5297 89.1255 44.3334 89.4918V94.964H42.374V87.4331H44.2084Z" fill="#0E9549"/>
<path d="M51.983 88.0908C52.404 87.5581 52.9237 87.2912 53.5418 87.2904C54.2215 87.2904 54.7386 87.5318 55.0932 88.0144C55.4478 88.4971 55.6272 89.216 55.6314 90.1712V94.9614H53.6732V90.1929C53.6732 89.7518 53.6051 89.4327 53.4686 89.2356C53.3322 89.0384 53.1119 88.9399 52.8079 88.9399C52.6382 88.9374 52.4711 88.9825 52.3252 89.0696C52.1792 89.1569 52.0599 89.2832 51.9804 89.4343V94.9614H50.0286V84.2707H51.9804L51.983 88.0908Z" fill="#0E9549"/>
<path d="M67.8834 86.532H65.4009V94.9615H63.367V86.532H60.9261V84.8277H67.8834V86.532Z" fill="#EC1E24"/>
<path d="M69.6575 85.4816C69.6528 85.343 69.6762 85.205 69.7261 85.0759C69.7761 84.9469 69.8517 84.8294 69.948 84.7308C70.1616 84.5418 70.4359 84.4377 70.7199 84.4377C71.0039 84.4377 71.2783 84.5418 71.4918 84.7308C71.5882 84.8294 71.6638 84.9469 71.7138 85.0759C71.7637 85.205 71.7871 85.343 71.7824 85.4816C71.7824 85.7659 71.6705 86.0385 71.4712 86.2395C71.2719 86.4406 71.0017 86.5536 70.7199 86.5536C70.4381 86.5536 70.168 86.4406 69.9687 86.2395C69.7694 86.0385 69.6575 85.7659 69.6575 85.4816ZM71.7066 94.9614H69.7472V87.4305H71.7066V94.9614Z" fill="#EC1E24"/>
<path d="M76.9364 95.0997C75.9341 95.0997 75.1526 94.798 74.5916 94.1947C74.0307 93.5912 73.7502 92.7287 73.7502 91.607V91.0117C73.7502 89.8221 74.008 88.9061 74.5234 88.2635C75.0388 87.6212 75.7766 87.2986 76.7368 87.2961C77.6742 87.2961 78.3799 87.5985 78.854 88.2037C79.3282 88.8087 79.5691 89.7023 79.5767 90.8843V91.8505H75.6945C75.7222 92.4088 75.844 92.8175 76.0597 93.0767C76.2752 93.336 76.6084 93.4634 77.0589 93.4591C77.362 93.4686 77.6637 93.4147 77.9451 93.3004C78.2264 93.1864 78.4814 93.0147 78.6936 92.7964L79.4592 93.9855C79.1892 94.3438 78.8301 94.6234 78.4183 94.7963C77.9514 95.0029 77.4461 95.1062 76.9364 95.0997ZM78.8604 86.2176V86.3019H77.3368L76.474 85.3L75.6123 86.3019H74.1229V86.1896L75.9156 84.2777H77.0337L78.8604 86.2176ZM76.6459 95.6211C76.9426 95.6076 77.2339 95.7057 77.4632 95.8964C77.5616 95.9823 77.6405 96.0885 77.6947 96.208C77.7487 96.3274 77.7768 96.4571 77.7768 96.5885C77.7768 96.7197 77.7487 96.8496 77.6947 96.969C77.6405 97.0885 77.5616 97.1947 77.4632 97.2806C77.2339 97.4713 76.9426 97.5693 76.6459 97.5559C76.3514 97.5688 76.0627 97.4707 75.8359 97.2806C75.7374 97.1949 75.6582 97.0886 75.604 96.9692C75.5498 96.8497 75.5217 96.7199 75.5217 96.5885C75.5217 96.4571 75.5498 96.3273 75.604 96.2078C75.6582 96.0884 75.7374 95.9821 75.8359 95.8964C76.0627 95.7064 76.3514 95.6082 76.6459 95.6211ZM75.7084 90.479H77.659V90.298C77.6501 89.8493 77.5769 89.5077 77.4391 89.2782C77.3014 89.0488 77.0601 88.9303 76.7216 88.9303C76.5766 88.9192 76.4314 88.9477 76.301 89.0125C76.1706 89.0773 76.0598 89.176 75.98 89.2985C75.8259 89.542 75.7362 89.9372 75.7084 90.479Z" fill="#EC1E24"/>
<path d="M83.1731 87.4331L83.2286 88.1775C83.4237 87.8986 83.6834 87.6722 83.985 87.518C84.2867 87.3638 84.6213 87.2865 84.9594 87.2929C86.2413 87.2929 86.9008 88.2 86.9378 90.0144V94.964H84.9796V90.1597C84.9796 89.7348 84.9165 89.4255 84.7902 89.2318C84.6638 89.0379 84.4419 88.9414 84.1245 88.9423C83.7707 88.9423 83.4949 89.1255 83.2969 89.4918V94.964H81.3387V87.4331H83.1731Z" fill="#EC1E24"/>
<path d="M95.45 92.1762L96.39 87.4318H98.4251L96.3812 94.9626H94.5189L92.4648 87.4344H94.5063L95.45 92.1762Z" fill="#EC1E24"/>
<path d="M103.495 94.9622C103.419 94.774 103.363 94.5777 103.33 94.3771C103.172 94.6078 102.959 94.7948 102.711 94.9213C102.463 95.0478 102.188 95.1096 101.91 95.1012C101.622 95.1098 101.335 95.0588 101.068 94.951C100.8 94.8433 100.558 94.6815 100.355 94.4752C100.148 94.2615 99.9869 94.0074 99.8806 93.7286C99.7745 93.4499 99.7256 93.1522 99.737 92.8538C99.737 92.0644 99.9867 91.4542 100.486 91.0233C100.986 90.5926 101.704 90.3724 102.64 90.363H103.234V89.7576C103.234 89.4176 103.176 89.1789 103.061 89.0413C102.998 88.9694 102.92 88.9133 102.832 88.8771C102.745 88.8408 102.65 88.8254 102.556 88.8323C102.068 88.8323 101.824 89.1198 101.824 89.6951H99.8747C99.8674 89.3677 99.9333 89.043 100.068 88.7447C100.202 88.4465 100.401 88.1828 100.65 87.9731C101.168 87.5209 101.822 87.2946 102.612 87.2936C103.431 87.2936 104.063 87.506 104.507 87.931C104.952 88.3559 105.176 88.9695 105.179 89.7717V93.3127C105.19 93.9629 105.281 94.4702 105.456 94.8424V94.9622H103.495ZM103.53 86.4218H101.887L99.9834 84.2638H102.165L103.53 86.4218ZM102.345 93.56C102.536 93.5678 102.726 93.5237 102.895 93.4326C103.032 93.3585 103.149 93.2511 103.234 93.1202V91.5435H102.765C102.619 91.5357 102.474 91.5603 102.338 91.6156C102.203 91.6709 102.081 91.7556 101.982 91.8634C101.783 92.1018 101.681 92.4076 101.698 92.7187C101.698 93.2796 101.913 93.56 102.345 93.56Z" fill="#EC1E24"/>
<path d="M118.382 94.9615H116.352L113.387 88.3165V94.9615H111.365V84.8277H113.387L116.358 91.479V84.8277H118.379L118.382 94.9615Z" fill="#EC1E24"/>
<path d="M120.386 90.9619C120.386 89.728 120.606 88.8073 121.048 88.1997C121.489 87.5921 122.107 87.2878 122.902 87.2871C123.21 87.2745 123.516 87.3422 123.79 87.4838C124.064 87.6255 124.298 87.836 124.468 88.0951L124.544 87.4272H126.302V94.958C126.302 95.9175 126.036 96.6513 125.502 97.1595C124.969 97.6676 124.204 97.9225 123.207 97.9242C122.764 97.9172 122.326 97.8317 121.912 97.6718C121.528 97.5516 121.18 97.335 120.901 97.0422L121.556 95.6783C121.759 95.8863 122.004 96.0487 122.273 96.155C122.537 96.2718 122.821 96.3346 123.108 96.3398C123.544 96.3398 123.859 96.234 124.049 96.0238C124.24 95.8134 124.338 95.4717 124.343 95.0039V94.3564C124.178 94.5894 123.959 94.7782 123.705 94.9069C123.452 95.0355 123.171 95.0998 122.887 95.0944C122.091 95.0944 121.477 94.7825 121.043 94.1589C120.609 93.535 120.39 92.6542 120.386 91.5164V90.9619ZM122.338 91.4553C122.338 92.1512 122.427 92.6581 122.606 92.976C122.689 93.1289 122.813 93.255 122.965 93.3393C123.116 93.4238 123.288 93.4631 123.461 93.4526C123.633 93.4632 123.805 93.4283 123.96 93.3514C124.115 93.2746 124.248 93.1583 124.345 93.0142V89.417C124.255 89.2651 124.126 89.1403 123.972 89.0558C123.818 88.9713 123.644 88.9301 123.468 88.9365C123.295 88.9276 123.123 88.9679 122.971 89.0529C122.82 89.1379 122.695 89.2641 122.611 89.417C122.424 89.7366 122.33 90.2516 122.331 90.9619L122.338 91.4553Z" fill="#EC1E24"/>
<path d="M131.972 94.968C131.896 94.7795 131.84 94.5833 131.806 94.3829C131.648 94.6135 131.436 94.8006 131.187 94.9271C130.939 95.0536 130.664 95.1153 130.386 95.1068C130.098 95.1154 129.812 95.0643 129.544 94.9566C129.277 94.849 129.034 94.6871 128.831 94.481C128.625 94.2671 128.464 94.0131 128.358 93.7342C128.252 93.4555 128.203 93.1579 128.215 92.8596C128.215 92.0702 128.464 91.46 128.963 91.0291C129.461 90.5984 130.179 90.3782 131.118 90.3689H131.71V89.7634C131.71 89.4235 131.653 89.1847 131.537 89.0471C131.475 88.9751 131.397 88.9188 131.309 88.8825C131.221 88.8462 131.126 88.8309 131.032 88.8381C130.544 88.8381 130.3 89.1256 130.3 89.7009H128.354C128.346 89.3735 128.412 89.0486 128.546 88.7503C128.68 88.4522 128.88 88.1885 129.129 87.9789C129.646 87.5269 130.3 87.3004 131.091 87.2995C131.909 87.2995 132.541 87.5119 132.986 87.9368C133.432 88.3617 133.656 88.9753 133.658 89.7775V93.3185C133.668 93.9685 133.759 94.4784 133.934 94.8481V94.968H131.972ZM130.821 93.5658C131.012 93.5736 131.203 93.5297 131.372 93.4382C131.509 93.3646 131.625 93.2573 131.71 93.126V91.5493H131.242C131.096 91.5416 130.95 91.5663 130.815 91.6216C130.679 91.6768 130.558 91.7614 130.458 91.8692C130.259 92.1074 130.157 92.4132 130.173 92.7245C130.173 93.2854 130.389 93.5658 130.821 93.5658Z" fill="#EC1E24"/>
<path d="M138.072 91.6848L139.065 87.4338H141.148L138.693 96.0888C138.326 97.3634 137.634 98.0009 136.617 98.0009C136.346 97.9962 136.077 97.9533 135.817 97.8734V96.3323H136.045C136.286 96.3496 136.527 96.2874 136.731 96.1551C136.91 95.9937 137.033 95.7775 137.08 95.5394L137.231 95.0295L135.083 87.4249H137.179L138.072 91.6848Z" fill="#EC1E24"/>
<path d="M149.347 93.465C149.913 93.465 150.2 93.0942 150.21 92.3523H152.044C152.033 93.1732 151.781 93.8364 151.286 94.342C150.791 94.8476 150.156 95.1026 149.382 95.1068C148.42 95.1068 147.687 94.8052 147.183 94.2019C146.678 93.5986 146.42 92.7104 146.409 91.5378V90.9386C146.409 89.7557 146.659 88.8537 147.159 88.2325C147.658 87.6114 148.394 87.3004 149.368 87.2995C150.191 87.2995 150.839 87.5544 151.312 88.0643C151.786 88.5741 152.03 89.302 152.044 90.2477H150.212C150.226 89.9107 150.155 89.5755 150.005 89.274C149.937 89.1605 149.839 89.0687 149.722 89.0083C149.605 88.948 149.474 88.9217 149.343 88.9324C149.002 88.9324 148.759 89.0598 148.611 89.2982C148.464 89.5365 148.386 90.0133 148.378 90.7143V91.4792C148.362 91.909 148.393 92.3393 148.467 92.7627C148.506 92.9689 148.609 93.1568 148.763 93.2981C148.933 93.4202 149.139 93.4791 149.347 93.465Z" fill="#0E9549"/>
<path d="M155.755 88.0908C156.177 87.5581 156.696 87.2912 157.314 87.2904C157.995 87.2904 158.511 87.5318 158.865 88.0144C159.219 88.4971 159.399 89.216 159.404 90.1712V94.9614H157.446V90.1929C157.446 89.7518 157.377 89.4327 157.242 89.2356C157.106 89.038 156.887 88.9399 156.582 88.9399C156.414 88.9374 156.247 88.9825 156.099 89.0696C155.954 89.1569 155.835 89.2832 155.755 89.4343V94.9614H153.804V84.2707H155.755V88.0908Z" fill="#0E9549"/>
<path d="M161.283 90.9533C161.283 89.8112 161.549 88.916 162.083 88.2677C162.616 87.6192 163.353 87.2943 164.296 87.2926C165.248 87.2926 165.99 87.6175 166.523 88.2677C167.057 88.9177 167.322 89.8176 167.322 90.9674V91.4465C167.322 92.593 167.058 93.4882 166.53 94.1324C166.002 94.7764 165.263 95.0989 164.31 95.0998C163.353 95.0998 162.61 94.7761 162.078 94.1285C161.547 93.481 161.281 92.5823 161.283 91.4326V90.9533ZM163.241 91.4465C163.241 92.7927 163.598 93.4652 164.31 93.4644C164.968 93.4644 165.322 92.9031 165.372 91.7807V90.9533C165.372 90.2658 165.278 89.756 165.09 89.4238C165.015 89.2734 164.902 89.1471 164.76 89.0592C164.619 88.9713 164.455 88.9253 164.29 88.9266C163.959 88.9266 163.699 89.0922 163.514 89.4238C163.328 89.7551 163.235 90.265 163.235 90.9533L163.241 91.4465Z" fill="#0E9549"/>
<path d="M175.036 87.4336L175.091 88.1283C175.294 87.8607 175.555 87.6452 175.857 87.5001C176.158 87.3549 176.489 87.2842 176.823 87.2935C177.568 87.2935 178.095 87.6334 178.401 88.3132C178.587 87.9933 178.855 87.7298 179.177 87.5503C179.499 87.3708 179.862 87.2822 180.229 87.2935C181.534 87.2935 182.204 88.2054 182.235 90.0289V94.9646H180.283V90.1539C180.283 89.7179 180.224 89.4069 180.104 89.2207C179.984 89.0347 179.783 88.9421 179.497 88.943C179.136 88.943 178.864 89.1681 178.684 89.6186L178.699 89.8544V94.9646H176.747V90.168C176.747 89.7359 176.689 89.4247 176.575 89.2322C176.46 89.0397 176.255 88.943 175.961 88.943C175.624 88.943 175.357 89.1261 175.161 89.4924V94.9646H173.209V87.4336H175.036Z" fill="#0E9549"/>
<path d="M184.156 90.9533C184.156 89.8112 184.423 88.916 184.955 88.2677C185.488 87.6192 186.226 87.2943 187.168 87.2926C188.12 87.2926 188.862 87.6175 189.397 88.2677C189.929 88.9177 190.197 89.8176 190.197 90.9674V91.4467C190.197 92.593 189.931 93.4883 189.403 94.1324C188.873 94.7766 188.134 95.099 187.182 95.0998C186.226 95.0998 185.482 94.7761 184.952 94.1285C184.421 93.481 184.156 92.5824 184.156 91.4326V90.9533ZM187.162 95.6696C187.458 95.6563 187.75 95.7543 187.979 95.9449C188.078 96.0308 188.157 96.1369 188.211 96.2565C188.264 96.3759 188.293 96.5056 188.293 96.637C188.293 96.7684 188.264 96.8983 188.211 97.0177C188.157 97.1373 188.078 97.2434 187.979 97.3293C187.744 97.5071 187.458 97.6032 187.165 97.6032C186.871 97.6032 186.586 97.5071 186.352 97.3293C186.253 97.2434 186.174 97.137 186.12 97.0175C186.067 96.8983 186.038 96.7684 186.038 96.637C186.038 96.5058 186.067 96.3759 186.12 96.2565C186.174 96.1371 186.253 96.0308 186.352 95.9449C186.578 95.7529 186.866 95.6524 187.162 95.6633V95.6696ZM186.114 91.453C186.114 92.7991 186.47 93.4716 187.182 93.4709C187.839 93.4709 188.193 92.9095 188.245 91.7869L188.252 90.9598C188.252 90.2722 188.157 89.7623 187.968 89.4302C187.896 89.2798 187.782 89.1535 187.639 89.0656C187.498 88.9777 187.335 88.9318 187.168 88.933C186.838 88.933 186.58 89.0987 186.393 89.4302C186.208 89.7616 186.114 90.2715 186.114 90.9598V91.453Z" fill="#0E9549"/>
<path d="M192.114 85.4817C192.109 85.3433 192.132 85.2053 192.182 85.0762C192.232 84.9472 192.306 84.8297 192.404 84.7309C192.618 84.542 192.892 84.4377 193.176 84.4377C193.46 84.4377 193.735 84.542 193.949 84.7309C194.044 84.8297 194.12 84.9472 194.17 85.0762C194.219 85.2053 194.243 85.3433 194.237 85.4817C194.243 85.6255 194.219 85.7688 194.167 85.9031C194.117 86.0374 194.04 86.1601 193.94 86.2634C193.841 86.3669 193.723 86.4493 193.59 86.5055C193.46 86.5617 193.319 86.5906 193.176 86.5906C193.033 86.5906 192.892 86.5617 192.76 86.5055C192.63 86.4493 192.511 86.3669 192.411 86.2634C192.312 86.1601 192.235 86.0374 192.183 85.9031C192.133 85.7688 192.109 85.6255 192.114 85.4817ZM194.161 94.9615H192.203V87.4307H194.161V94.9615Z" fill="#0E9549"/>
<path d="M202.133 87.4332L202.188 88.1775C202.383 87.8988 202.643 87.6723 202.945 87.5181C203.246 87.3639 203.581 87.2866 203.92 87.2929C205.202 87.2929 205.862 88.2 205.899 90.0144V94.9642H203.941V90.1597C203.941 89.7348 203.877 89.4255 203.751 89.2318C203.625 89.0393 203.402 88.9424 203.085 88.9424C202.731 88.9424 202.455 89.1255 202.258 89.4918V94.9642H200.299V87.4332H202.133Z" fill="#0E9549"/>
<path d="M209.906 88.0908C210.326 87.5581 210.846 87.2912 211.463 87.2904C212.145 87.2904 212.662 87.5318 213.015 88.0144C213.368 88.4971 213.547 89.216 213.553 90.1712V94.9614H211.595V90.1929C211.595 89.7518 211.527 89.4327 211.392 89.2356C211.255 89.038 211.037 88.9399 210.732 88.9399C210.562 88.9373 210.395 88.9822 210.249 89.0694C210.103 89.1567 209.985 89.2831 209.906 89.4343V94.9614H207.954V84.2707H209.906V88.0908Z" fill="#0E9549"/>
<path d="M219.203 94.9622C219.125 94.7741 219.069 94.5778 219.037 94.3771C218.878 94.6077 218.666 94.7946 218.417 94.9211C218.169 95.0476 217.893 95.1095 217.615 95.101C217.328 95.1096 217.041 95.0586 216.774 94.9508C216.506 94.8432 216.263 94.6813 216.061 94.4752C215.854 94.2612 215.694 94.007 215.587 93.7283C215.481 93.4496 215.432 93.1521 215.445 92.8538C215.445 92.0644 215.694 91.4542 216.191 91.0233C216.691 90.5926 217.409 90.3724 218.347 90.363H218.937V89.7576C218.937 89.4176 218.88 89.1789 218.766 89.0413C218.702 88.9694 218.625 88.9133 218.537 88.877C218.448 88.8408 218.354 88.8254 218.26 88.8321C217.773 88.8321 217.53 89.1198 217.53 89.6951H215.578C215.571 89.3677 215.636 89.0428 215.771 88.7447C215.905 88.4465 216.105 88.1828 216.354 87.9731C216.871 87.5209 217.526 87.2944 218.315 87.2936C219.135 87.2936 219.766 87.506 220.211 87.931C220.655 88.3559 220.879 88.9695 220.883 89.7717V93.3127C220.891 93.9629 220.983 94.4726 221.158 94.8423V94.9622H219.203ZM219.236 86.4218H217.594L215.692 84.2638H217.878L219.236 86.4218ZM218.052 93.56C218.245 93.5678 218.435 93.5239 218.605 93.4326C218.741 93.3585 218.857 93.2511 218.942 93.1202V91.5435H218.473C218.329 91.5357 218.183 91.5603 218.048 91.6156C217.913 91.6709 217.791 91.7556 217.691 91.8634C217.492 92.1013 217.389 92.4071 217.404 92.7187C217.403 93.2796 217.62 93.56 218.052 93.56Z" fill="#0E9549"/>
<path d="M226.036 21.8529H223.038C222.903 21.8528 222.771 21.82 222.651 21.7572C222.532 21.6944 222.428 21.6035 222.351 21.4922L218.136 15.4171H216.082L221.475 23.1926C221.552 23.3044 221.656 23.3955 221.776 23.4586C221.896 23.5215 222.029 23.5546 222.164 23.5546H228.389C228.524 23.5544 228.658 23.5872 228.777 23.6503C228.897 23.7134 229.001 23.8048 229.078 23.9167L239.563 39.0178C239.662 39.1606 239.715 39.3306 239.715 39.5047C239.715 39.679 239.662 39.8488 239.563 39.9916L231.991 50.9016C231.913 51.0134 231.81 51.1047 231.69 51.1678C231.57 51.2307 231.438 51.2636 231.303 51.2636C231.168 51.2636 231.035 51.2307 230.915 51.1678C230.795 51.1047 230.692 51.0134 230.614 50.9016L223.042 39.9892C222.943 39.8468 222.89 39.677 222.89 39.5029C222.89 39.3288 222.943 39.1589 223.042 39.0165L227.065 33.2206C227.143 33.1091 227.246 33.018 227.366 32.9552C227.486 32.8923 227.618 32.8595 227.753 32.8595C227.888 32.8595 228.022 32.8923 228.141 32.9552C228.26 33.018 228.363 33.1091 228.441 33.2206L229.942 35.3748C230.04 35.5175 230.093 35.6875 230.093 35.8617C230.093 36.036 230.04 36.2059 229.942 36.3486L228.087 39.0254C227.988 39.168 227.935 39.3378 227.935 39.5117C227.935 39.6857 227.988 39.8555 228.087 39.9981L231.297 44.6188L234.51 39.9904C234.609 39.8479 234.662 39.678 234.662 39.5041C234.662 39.3301 234.609 39.1605 234.51 39.0178L226.93 28.0888C226.853 27.977 226.75 27.8857 226.63 27.8226C226.51 27.7596 226.376 27.7266 226.241 27.7266H222.163C222.028 27.7268 221.894 27.7597 221.774 27.8228C221.654 27.8857 221.551 27.977 221.474 28.0888L216.076 35.8643L218.133 35.8579L222.349 29.779C222.427 29.6676 222.53 29.5768 222.65 29.5141C222.77 29.4513 222.903 29.4184 223.038 29.4182H225.367C225.502 29.4182 225.634 29.4511 225.754 29.5142C225.874 29.5772 225.977 29.6684 226.054 29.7802L226.388 30.2595C226.487 30.402 226.54 30.5718 226.54 30.7458C226.54 30.9198 226.487 31.0894 226.388 31.2321L220.536 39.6653C220.458 39.777 220.355 39.8679 220.235 39.9307C220.115 39.9935 219.981 40.0262 219.846 40.0261H209.757C209.604 40.0258 209.454 39.9831 209.322 39.9025C209.191 39.822 209.083 39.7067 209.013 39.5692C208.942 39.4317 208.91 39.2772 208.919 39.1224C208.93 38.9677 208.982 38.8187 209.07 38.6915L217.787 26.1181C217.885 25.9755 217.938 25.8057 217.938 25.6317C217.938 25.4578 217.885 25.2881 217.787 25.1454L209.07 12.5796C208.98 12.4526 208.928 12.3035 208.918 12.1486C208.909 11.9937 208.941 11.839 209.012 11.7013C209.082 11.5636 209.19 11.4483 209.322 11.3678C209.452 11.2874 209.604 11.2449 209.757 11.2451H219.854C219.989 11.2452 220.123 11.2781 220.243 11.3411C220.362 11.4042 220.466 11.4954 220.543 11.6071L226.727 20.5197C226.815 20.6467 226.868 20.796 226.877 20.9512C226.888 21.1061 226.856 21.2611 226.785 21.3987C226.713 21.5366 226.605 21.6517 226.473 21.7318C226.341 21.812 226.19 21.8538 226.036 21.8529Z" fill="#EC1E24"/>
<path d="M236.578 29.4109H239.572C239.708 29.4109 239.841 29.4439 239.961 29.5069C240.081 29.57 240.184 29.6611 240.262 29.7729L244.477 35.8467H246.53L241.137 28.0712C241.06 27.9594 240.957 27.8681 240.837 27.805C240.717 27.7421 240.583 27.7092 240.448 27.7092H234.222C234.087 27.7092 233.953 27.6764 233.833 27.6136C233.714 27.5509 233.61 27.4599 233.533 27.3484L223.034 12.2447C222.935 12.1022 222.882 11.9324 222.882 11.7584C222.882 11.5844 222.935 11.4146 223.034 11.2721L230.606 0.362089C230.684 0.250323 230.787 0.159075 230.907 0.0960755C231.027 0.0330764 231.159 0.000183105 231.296 0.000183105C231.431 0.000183105 231.563 0.0330764 231.683 0.0960755C231.803 0.159075 231.906 0.250323 231.985 0.362089L239.556 11.2721C239.654 11.4147 239.708 11.5844 239.708 11.7584C239.708 11.9323 239.654 12.1021 239.556 12.2447L235.533 18.0393C235.455 18.1508 235.351 18.2419 235.233 18.3047C235.113 18.3676 234.979 18.4004 234.844 18.4004C234.709 18.4004 234.576 18.3676 234.456 18.3047C234.336 18.2419 234.233 18.1508 234.155 18.0393L232.659 15.8814C232.56 15.7388 232.507 15.569 232.507 15.395C232.507 15.2211 232.56 15.0513 232.659 14.9088L234.506 12.2472C234.604 12.1047 234.658 11.9349 234.658 11.7609C234.658 11.5869 234.604 11.4172 234.506 11.2746L231.294 6.64245L228.082 11.2721C227.982 11.4146 227.929 11.5844 227.929 11.7584C227.929 11.9324 227.982 12.1022 228.082 12.2447L235.687 23.1814C235.764 23.2928 235.867 23.3836 235.987 23.4463C236.107 23.5091 236.241 23.542 236.376 23.5422H240.429C240.564 23.5422 240.697 23.5093 240.816 23.4462C240.935 23.3833 241.039 23.292 241.116 23.1802L246.509 15.4047H244.454L240.237 21.4824C240.16 21.5937 240.057 21.6848 239.937 21.7476C239.817 21.8104 239.683 21.8431 239.548 21.843H237.233C237.098 21.843 236.965 21.81 236.845 21.7471C236.725 21.684 236.622 21.5928 236.544 21.481L236.204 20.9916C236.106 20.8492 236.053 20.6794 236.053 20.5053C236.053 20.3312 236.106 20.1614 236.204 20.0189L242.054 11.5997C242.132 11.4878 242.235 11.3965 242.355 11.3335C242.475 11.2704 242.608 11.2376 242.743 11.2377H252.839C252.993 11.2378 253.144 11.2805 253.276 11.3611C253.406 11.4417 253.514 11.5572 253.585 11.6949C253.655 11.8327 253.689 11.9874 253.678 12.1423C253.667 12.2972 253.616 12.4464 253.528 12.5735L244.811 25.1393C244.712 25.282 244.659 25.452 244.659 25.6262C244.659 25.8005 244.712 25.9706 244.811 26.1132L253.55 38.6829C253.64 38.8104 253.695 38.9608 253.705 39.1173C253.716 39.2738 253.684 39.4303 253.611 39.5692C253.54 39.7082 253.43 39.8244 253.297 39.905C253.163 39.9854 253.012 40.027 252.855 40.025H242.763C242.628 40.0252 242.494 39.9923 242.374 39.9293C242.255 39.8662 242.151 39.775 242.072 39.663L235.883 30.7518C235.791 30.6242 235.738 30.4739 235.728 30.3175C235.717 30.161 235.749 30.0047 235.822 29.8657C235.893 29.7268 236.002 29.6105 236.136 29.5303C236.27 29.4501 236.421 29.4086 236.578 29.4109Z" fill="#EC1E24"/>
</g>
<defs>
<clipPath id="clip0_1382_17830">
<rect width="255" height="98" fill="white"/>
</clipPath>
</defs>
</svg>
